<?xml version="1.0" encoding="utf-8"?>
<!-- Generator: Adobe Adobe Illustrator 24.2.0, SVG Export Plug-In . SVG Version: 6.00 Build 0)  -->
<svg version="1.1" xmlns="http://www.w3.org/2000/svg" xmlns:xlink="http://www.w3.org/1999/xlink" x="0px" y="0px"
	 viewBox="0 0 146 146" style="enable-background:new 0 0 146 146;" xml:space="preserve">
<style type="text/css">
	.st0{fill:#F04A23;}
	.st1{fill:#9A6B58;}
</style>
<g id="Layer_1">
	<g>
		<path class="st0" d="M143.92,57.33v1.12c0,3.83-3.09,6.95-6.88,6.95h-4.81c-3.44,0-6.29-2.54-6.8-5.87c0,0-0.03-0.74-0.08-1.3
			c-0.19-1.87-0.68-3.65-1.42-5.3c-2.65-5.85-8.56-9.93-15.41-9.93H61.06c-4.92,0-9.34,2.1-12.43,5.45c0,0-19.32,0-20.28,0
			c4.33-12.47,16.87-20.6,30.08-20.6h53.15c6.2,0,12,1.74,16.93,4.75c5.69,3.49,10.23,8.67,12.89,14.86
			C142.73,50.55,143.6,53.86,143.92,57.33z"/>
		<path class="st0" d="M144.03,110.67c0.02,0.37,0.02,0.74,0.02,1.12c0,17.93-14.53,32.46-32.46,32.46H58.44
			c-11.92,0-24.13-6.68-30.34-20.22c2.79,0,20.87,0,20.87,0c3.08,3.13,7.36,5.07,12.09,5.07h47.45c9.34,0,16.92-7.57,16.92-16.92
			c0-2.48-0.54-4.87-1.49-7.05c-2.64-6.06-8.56-10.49-15.42-10.49h-0.24c0,0-10.18-0.01-0.61-0.01l-49.23-0.02
			c-9.58,0-18.19-4.15-24.13-10.74c-0.43-0.48-0.84-0.97-1.25-1.47c-1.76-2.19-4.36-6.26-4.94-9.02c0.65,0,22.53,0,22.53,0
			c2.87,2.28,6.49,3.67,10.42,3.67l50.51,0.01c6.05,0,11.72,1.66,16.57,4.54c2.92,1.74,5.56,3.93,7.8,6.47
			c0.35,0.39,0.68,0.79,1.01,1.2c4.43,5.56,7.09,12.59,7.09,20.25C144.05,109.92,144.05,110.3,144.03,110.67z"/>
	</g>
	<path class="st1" d="M21.41,69.28H87c3.98,0,7.64,1.38,10.53,3.68h10.97c3.5,0,6.96,0.5,10.26,1.47
		c-2.25-5.31-5.89-9.9-10.44-13.32c3.05-2.29,5.68-5.1,7.77-8.3c-2.28-3.46-6.23-5.69-10.66-5.69h-5.99
		c-3.09,3.35-7.51,5.45-12.43,5.45H21.45l-0.03-33.84h65.35c0.05,0,0.09,0,0.14,0.01H87c4.69,0,8.94,1.91,12.01,5h9.49
		c3.99,0,7.86,0.65,11.51,1.86C115.99,12.13,103.5,2.3,88.7,2.3L2.11,2.31c-0.02,0.02,0,117.23,0,117.23l86.59,0.38
		c11.5,0,21.63-5.95,27.45-14.93c-2.3-3.7-6.3-6.22-10.73-6.22h-2.59c-0.48,0-1,0-1.53-0.03h-2.94c-3,2.71-6.99,4.36-11.35,4.36
		H21.41V69.28z"/>
</g>
<g id="Layer_2">
</g>
</svg>
